# xmcd
# 
# Track frame offsets:
#     150
#     14336
#     29129
#     51541
#     66561
#     82032
#     87486
#     98240
#     120806
#     137744
#     159904
#     169418
# 
# Disc length: 2357
# 
# Revision: 5
# Processed by: cddbd v1.5.2PL0 Copyright (c) Steve Scherf et al.
# Submitted via: fre:ac v1.0.31
# 
DISCID=a709330c
DTITLE=John Denver - Aerie
DYEAR=0
DGENRE=Rock/Pop
TTITLE0=Starwood In Aspen
TTITLE1=Everyday
TTITLE2=Casey's Last Ride
TTITLE3=City Of New Orleans
TTITLE4=Friends With You
TTITLE5=60 Second Song For A Bank, With The Phrase 'May We Help You Today'
TTITLE6=Blow Up Your TV (Spanish Pipe Dream)
TTITLE7=All Of My Memories
TTITLE8=She Won't Let Me Fly Away
TTITLE9=Readjustment Blues
TTITLE10=The Eagle And The Hawk
TTITLE11=Tools
EXTD=
EXTT0=
EXTT1=
EXTT2=
EXTT3=
EXTT4=
EXTT5=
EXTT6=
EXTT7=
EXTT8=
EXTT9=
EXTT10=
EXTT11=
PLAYORDER=
